<?xml version="1.0" encoding="UTF-8" standalone="no"?>
<!DOCTYPE svg PUBLIC "-//W3C//DTD SVG 1.1//EN" "http://www.w3.org/Graphics/SVG/1.1/DTD/svg11.dtd">
<svg width="100%" height="100%" viewBox="0 0 1000 100" version="1.1" xmlns="http://www.w3.org/2000/svg" xmlns:xlink="http://www.w3.org/1999/xlink" xml:space="preserve" xmlns:serif="http://www.serif.com/" style="fill-rule:evenodd;clip-rule:evenodd;stroke-linejoin:round;stroke-miterlimit:2;">
    <g id="hot-won-t-quit" serif:id="hot won&apos;t quit" transform="matrix(2.03045,0,0,2.03045,-9543.93,-6627.22)">
        <g id="quit" transform="matrix(1,0,0,1,29.7066,0)">
            <g transform="matrix(50,0,0,50,5131.64,3308.76)">
                <path d="M0.03,-0.773L0.03,-0.809L0.557,-0.809L0.557,-0.773L0.03,-0.773ZM0.03,-0.703L0.03,-0.738L0.557,-0.738L0.557,-0.703L0.03,-0.703ZM0.03,-0.633L0.03,-0.668L0.557,-0.668L0.557,-0.633L0.417,-0.633L0.417,0L0.381,0L0.381,-0.633L0.346,-0.633L0.346,0L0.311,0L0.311,-0.633L0.276,-0.633L0.276,0L0.241,0L0.241,-0.633L0.206,-0.633L0.206,0L0.17,0L0.17,-0.633L0.03,-0.633Z" style="fill:url(#_Linear1);fill-rule:nonzero;"/>
            </g>
            <g transform="matrix(50,7.88861e-31,-7.88861e-31,50,5114.7,3308.76)">
                <path d="M0.256,-0.809L0.292,-0.809L0.292,0L0.256,0L0.256,-0.809ZM0.186,-0.809L0.221,-0.809L0.221,0L0.186,0L0.186,-0.809ZM0.116,-0.809L0.151,-0.809L0.151,0L0.116,0L0.116,-0.809ZM0.045,-0.809L0.081,-0.809L0.081,0L0.045,0L0.045,-0.809Z" style="fill:url(#_Linear2);fill-rule:nonzero;"/>
            </g>
            <g transform="matrix(50,7.88861e-31,-7.88861e-31,50,5069.43,3308.76)">
                <path d="M0.615,-0.355L0.615,-0.809L0.65,-0.809L0.65,-0.355C0.65,-0.306 0.63,-0.264 0.591,-0.229C0.552,-0.193 0.505,-0.176 0.451,-0.176C0.396,-0.176 0.349,-0.193 0.31,-0.229C0.271,-0.264 0.251,-0.306 0.251,-0.355L0.251,-0.809L0.287,-0.809L0.287,-0.355C0.287,-0.316 0.303,-0.282 0.335,-0.253C0.367,-0.225 0.405,-0.211 0.451,-0.211C0.496,-0.211 0.535,-0.225 0.567,-0.253C0.599,-0.282 0.615,-0.316 0.615,-0.355ZM0.685,-0.355L0.685,-0.809L0.72,-0.809L0.72,-0.355C0.72,-0.322 0.713,-0.289 0.699,-0.259C0.684,-0.228 0.665,-0.201 0.641,-0.179C0.617,-0.156 0.588,-0.138 0.555,-0.125C0.522,-0.112 0.487,-0.105 0.451,-0.105C0.414,-0.105 0.379,-0.112 0.346,-0.125C0.313,-0.138 0.284,-0.156 0.26,-0.179C0.236,-0.201 0.217,-0.228 0.203,-0.259C0.188,-0.289 0.181,-0.322 0.181,-0.355L0.181,-0.809L0.216,-0.809L0.216,-0.355C0.216,-0.317 0.227,-0.281 0.248,-0.248C0.269,-0.215 0.297,-0.189 0.333,-0.169C0.369,-0.15 0.408,-0.141 0.451,-0.141C0.493,-0.141 0.532,-0.15 0.568,-0.169C0.604,-0.189 0.633,-0.215 0.654,-0.248C0.675,-0.281 0.685,-0.317 0.685,-0.355ZM0.755,-0.355L0.755,-0.809L0.791,-0.809L0.791,-0.355C0.791,-0.312 0.781,-0.271 0.763,-0.231C0.745,-0.192 0.721,-0.158 0.691,-0.129C0.661,-0.1 0.625,-0.077 0.583,-0.061C0.541,-0.044 0.497,-0.035 0.451,-0.035C0.405,-0.035 0.361,-0.044 0.319,-0.061C0.277,-0.077 0.241,-0.1 0.21,-0.129C0.18,-0.158 0.156,-0.192 0.138,-0.231C0.12,-0.271 0.111,-0.312 0.111,-0.355L0.111,-0.809L0.146,-0.809L0.146,-0.355C0.146,-0.304 0.16,-0.256 0.187,-0.213C0.214,-0.169 0.251,-0.134 0.298,-0.109C0.345,-0.083 0.396,-0.07 0.451,-0.07C0.506,-0.07 0.557,-0.083 0.603,-0.109C0.65,-0.134 0.687,-0.169 0.714,-0.213C0.742,-0.256 0.755,-0.304 0.755,-0.355ZM0.826,-0.355L0.826,-0.809L0.861,-0.809L0.861,-0.355C0.861,-0.285 0.842,-0.22 0.806,-0.16C0.769,-0.1 0.719,-0.052 0.656,-0.017C0.593,0.018 0.525,0.035 0.451,0.035C0.377,0.035 0.308,0.018 0.245,-0.017C0.182,-0.052 0.132,-0.1 0.096,-0.16C0.059,-0.22 0.041,-0.285 0.041,-0.355L0.041,-0.809L0.076,-0.809L0.076,-0.355C0.076,-0.308 0.086,-0.262 0.105,-0.218C0.125,-0.174 0.152,-0.136 0.186,-0.104C0.219,-0.073 0.259,-0.047 0.305,-0.028C0.352,-0.009 0.4,0 0.451,0C0.501,0 0.55,-0.009 0.596,-0.028C0.642,-0.047 0.682,-0.073 0.716,-0.104C0.749,-0.136 0.776,-0.174 0.796,-0.218C0.816,-0.262 0.826,-0.308 0.826,-0.355Z" style="fill:url(#_Linear3);fill-rule:nonzero;"/>
            </g>
            <g transform="matrix(3.03168e-17,-0.49511,0.49511,3.03168e-17,4644.73,5014.59)">
                <path d="M3442.61,876.854L3442.61,809.933C3442.61,803.977 3443.78,798.29 3446.1,792.872C3448.43,787.454 3451.55,782.784 3455.47,778.863C3459.4,774.941 3464.06,771.809 3469.46,769.466C3474.89,767.155 3480.59,766 3486.55,766C3492.5,766 3498.19,767.164 3503.61,769.49C3509.02,771.817 3513.69,774.941 3517.62,778.863C3521.54,782.784 3524.66,787.454 3526.99,792.872C3529.31,798.29 3530.48,803.977 3530.48,809.933C3530.48,815.888 3529.31,821.575 3526.99,826.993C3524.66,832.411 3521.54,837.081 3517.62,841.002C3513.69,844.924 3509.02,848.048 3503.61,850.375C3498.19,852.701 3492.5,853.865 3486.55,853.865C3480.59,853.865 3474.9,852.701 3469.48,850.375C3468.71,850.043 3467.96,849.696 3467.22,849.332L3467.22,856.774C3466,857.098 3464.83,857.479 3463.7,857.912L3463.7,809.933C3463.7,806.841 3464.3,803.888 3465.51,801.073C3466.71,798.258 3468.34,795.825 3470.39,793.775C3472.44,791.725 3474.86,790.098 3477.66,788.894C3480.49,787.69 3483.45,787.088 3486.55,787.088C3489.64,787.088 3492.59,787.69 3495.4,788.894C3498.22,790.098 3500.65,791.725 3502.7,793.775C3504.75,795.825 3506.38,798.258 3507.58,801.073C3508.79,803.888 3509.39,806.841 3509.39,809.933C3509.39,813.024 3508.79,815.977 3507.58,818.792C3506.38,821.607 3504.75,824.04 3502.7,826.09C3500.65,828.14 3498.22,829.767 3495.4,830.971C3492.59,832.175 3489.64,832.777 3486.55,832.777C3483.45,832.777 3480.5,832.175 3477.68,830.971C3474.87,829.767 3472.44,828.14 3470.39,826.09C3469.18,824.886 3468.13,823.551 3467.22,822.084L3467.22,827.882C3468.97,829.78 3471.01,831.403 3473.32,832.753C3477.35,835.112 3481.76,836.292 3486.55,836.292C3491.33,836.292 3495.74,835.112 3499.77,832.753C3503.81,830.394 3507.01,827.196 3509.37,823.161C3511.72,819.126 3512.9,814.716 3512.9,809.933C3512.9,805.149 3511.72,800.739 3509.37,796.704C3507.01,792.669 3503.81,789.463 3499.77,787.088C3495.74,784.745 3491.33,783.573 3486.55,783.573C3481.76,783.573 3477.35,784.753 3473.32,787.112C3469.28,789.471 3466.08,792.669 3463.72,796.704C3461.37,800.739 3460.18,805.149 3460.18,809.933C3460.18,810.181 3460.19,810.429 3460.2,810.675L3460.18,810.675L3460.18,859.469C3458.96,860.091 3457.79,860.771 3456.67,861.498L3456.67,809.933C3456.67,804.53 3458.01,799.535 3460.67,794.947C3463.34,790.358 3466.97,786.73 3471.56,784.061C3476.15,781.393 3481.14,780.059 3486.55,780.059C3491.95,780.059 3496.94,781.393 3501.53,784.061C3506.12,786.73 3509.75,790.358 3512.42,794.947C3515.09,799.535 3516.42,804.53 3516.42,809.933C3516.42,815.335 3515.09,820.33 3512.42,824.918C3509.75,829.507 3506.12,833.135 3501.53,835.804C3496.94,838.472 3491.95,839.807 3486.55,839.807C3481.14,839.807 3476.15,838.472 3471.56,835.804C3470,834.897 3468.55,833.88 3467.22,832.751L3467.22,837.197C3469.15,838.547 3471.27,839.71 3473.56,840.685C3477.69,842.442 3482.02,843.321 3486.55,843.321C3491.07,843.321 3495.4,842.442 3499.53,840.685C3503.66,838.928 3507.22,836.56 3510.2,833.583C3513.17,830.605 3515.54,827.05 3517.3,822.917C3519.06,818.784 3519.93,814.456 3519.93,809.933C3519.93,805.409 3519.06,801.081 3517.3,796.948C3515.54,792.815 3513.17,789.26 3510.2,786.282C3507.22,783.305 3503.66,780.937 3499.53,779.18C3495.4,777.423 3491.07,776.544 3486.55,776.544C3482.02,776.544 3477.69,777.423 3473.56,779.18C3469.43,780.937 3465.87,783.305 3462.89,786.282C3459.92,789.26 3457.55,792.815 3455.79,796.948C3454.03,801.081 3453.16,805.409 3453.16,809.933C3453.16,810.181 3453.16,810.428 3453.16,810.675L3453.16,810.675L3453.16,864.071C3451.9,865.101 3450.73,866.186 3449.64,867.303L3449.64,809.933C3449.64,803.261 3451.29,797.094 3454.6,791.432C3457.9,785.77 3462.38,781.279 3468.04,777.96C3473.71,774.673 3479.87,773.029 3486.55,773.029C3493.22,773.029 3499.38,774.681 3505.05,777.984C3510.71,781.287 3515.19,785.77 3518.49,791.432C3521.8,797.094 3523.45,803.261 3523.45,809.933C3523.45,816.604 3521.8,822.771 3518.49,828.433C3515.19,834.095 3510.71,838.578 3505.05,841.881C3499.38,845.184 3493.22,846.836 3486.55,846.836C3479.87,846.836 3473.71,845.184 3468.04,841.881C3467.76,841.718 3467.49,841.552 3467.22,841.383L3467.22,845.405C3468.38,846.034 3469.6,846.617 3470.85,847.153C3475.85,849.285 3481.08,850.35 3486.55,850.35C3492.01,850.35 3497.24,849.285 3502.24,847.153C3507.23,845.021 3511.54,842.15 3515.15,838.537C3518.76,834.925 3521.63,830.621 3523.76,825.626C3525.9,820.631 3526.96,815.4 3526.96,809.933C3526.96,804.465 3525.9,799.234 3523.76,794.239C3521.63,789.244 3518.76,784.94 3515.15,781.328C3511.54,777.715 3507.23,774.835 3502.21,772.688C3497.24,770.572 3492.01,769.515 3486.55,769.515C3481.08,769.515 3475.85,770.581 3470.85,772.712C3465.86,774.844 3461.55,777.715 3457.94,781.328C3454.33,784.94 3451.46,789.244 3449.32,794.239C3447.19,799.234 3446.13,804.465 3446.13,809.933C3446.13,810.181 3446.13,810.428 3446.13,810.675L3446.13,810.675L3446.13,871.398C3444.74,873.234 3443.57,875.083 3442.61,876.854ZM3500.21,796.265C3496.44,792.49 3491.88,790.602 3486.55,790.602C3481.21,790.602 3476.65,792.49 3472.88,796.265C3469.1,800.04 3467.22,804.596 3467.22,809.933C3467.22,815.269 3469.1,819.825 3472.88,823.6C3476.65,827.375 3481.21,829.263 3486.55,829.263C3491.88,829.263 3496.44,827.375 3500.21,823.6C3503.99,819.825 3505.88,815.269 3505.88,809.933C3505.88,804.596 3503.99,800.04 3500.21,796.265Z" style="fill:url(#_Linear4);"/>
            </g>
        </g>
        <g id="won-t" serif:id="won&apos;t" transform="matrix(1,0,0,1,14.8533,0)">
            <g transform="matrix(50,0,0,50,4828.56,3308.76)">
                <path d="M0.277,-0.249L0.26,-0.179L0.093,-0.809L0.129,-0.809L0.277,-0.249ZM0.313,-0.384L0.295,-0.316L0.166,-0.809L0.202,-0.809L0.313,-0.384ZM0.35,-0.524L0.332,-0.456L0.238,-0.809L0.275,-0.809L0.35,-0.524ZM0.489,0L0.453,0L0.667,-0.808L0.666,-0.809L0.703,-0.809L0.703,-0.808L0.798,-0.479L0.886,-0.809L0.922,-0.809L0.708,0L0.671,0L0.576,-0.328L0.489,0ZM0.416,0L0.38,0L0.594,-0.809L0.63,-0.809L0.416,0ZM0.343,0L0.307,0L0.521,-0.809L0.557,-0.809L0.343,0ZM0.927,0L0.89,0L1.104,-0.809L1.141,-0.809L0.927,0ZM0.854,0L0.817,0L1.031,-0.809L1.067,-0.809L0.854,0ZM0.781,0L0.745,0L0.959,-0.809L0.995,-0.809L0.781,0ZM0.252,-0.069L0.448,-0.809L0.485,-0.809L0.271,0L0.234,0L0.02,-0.809L0.057,-0.809L0.252,-0.069ZM0.594,-0.396L0.689,-0.066L0.708,-0.136L0.612,-0.465L0.594,-0.396ZM0.63,-0.534L0.726,-0.205L0.744,-0.274L0.649,-0.604L0.63,-0.534ZM0.667,-0.671L0.762,-0.342L0.78,-0.411L0.686,-0.741L0.667,-0.671Z" style="fill:url(#_Linear5);fill-rule:nonzero;"/>
            </g>
            <g transform="matrix(50,0,0,50,4884.08,3308.76)">
                <path d="M0.33,-0.541C0.292,-0.503 0.273,-0.458 0.273,-0.404C0.273,-0.351 0.292,-0.305 0.33,-0.268C0.368,-0.23 0.413,-0.211 0.467,-0.211C0.52,-0.211 0.566,-0.23 0.604,-0.268C0.641,-0.305 0.66,-0.351 0.66,-0.404C0.66,-0.458 0.641,-0.503 0.604,-0.541C0.566,-0.579 0.52,-0.598 0.467,-0.598C0.413,-0.598 0.368,-0.579 0.33,-0.541ZM0.256,-0.315C0.244,-0.344 0.238,-0.373 0.238,-0.404C0.238,-0.435 0.244,-0.465 0.256,-0.493C0.268,-0.521 0.285,-0.545 0.305,-0.566C0.326,-0.586 0.35,-0.603 0.378,-0.615C0.406,-0.627 0.436,-0.633 0.467,-0.633C0.498,-0.633 0.527,-0.627 0.555,-0.615C0.584,-0.603 0.608,-0.586 0.628,-0.566C0.649,-0.545 0.665,-0.521 0.677,-0.493C0.689,-0.465 0.695,-0.435 0.695,-0.404C0.695,-0.373 0.689,-0.344 0.677,-0.316C0.665,-0.288 0.649,-0.263 0.628,-0.243C0.608,-0.222 0.584,-0.206 0.555,-0.194C0.527,-0.182 0.498,-0.176 0.467,-0.176C0.436,-0.176 0.406,-0.182 0.378,-0.194C0.35,-0.206 0.326,-0.222 0.305,-0.243C0.285,-0.263 0.268,-0.287 0.256,-0.315ZM0.238,-0.537C0.215,-0.496 0.203,-0.452 0.203,-0.404C0.203,-0.356 0.215,-0.312 0.239,-0.272C0.262,-0.232 0.294,-0.2 0.334,-0.176C0.375,-0.152 0.419,-0.141 0.467,-0.141C0.515,-0.141 0.559,-0.152 0.599,-0.176C0.639,-0.2 0.671,-0.232 0.695,-0.272C0.719,-0.312 0.73,-0.356 0.73,-0.404C0.73,-0.452 0.719,-0.496 0.695,-0.537C0.671,-0.577 0.639,-0.609 0.599,-0.633C0.559,-0.656 0.515,-0.668 0.467,-0.668C0.419,-0.668 0.375,-0.656 0.334,-0.633C0.294,-0.609 0.262,-0.577 0.238,-0.537ZM0.208,-0.254C0.181,-0.3 0.168,-0.35 0.168,-0.404C0.168,-0.458 0.181,-0.508 0.208,-0.554C0.235,-0.6 0.271,-0.636 0.317,-0.663C0.363,-0.69 0.413,-0.703 0.467,-0.703C0.521,-0.703 0.571,-0.69 0.617,-0.663C0.663,-0.636 0.699,-0.6 0.726,-0.554C0.752,-0.508 0.766,-0.458 0.766,-0.404C0.766,-0.35 0.752,-0.3 0.726,-0.254C0.699,-0.208 0.663,-0.172 0.617,-0.146C0.571,-0.119 0.521,-0.105 0.467,-0.105C0.413,-0.105 0.363,-0.119 0.317,-0.146C0.271,-0.172 0.235,-0.208 0.208,-0.254ZM0.159,-0.534C0.142,-0.493 0.133,-0.45 0.133,-0.404C0.133,-0.359 0.142,-0.316 0.159,-0.274C0.177,-0.233 0.2,-0.198 0.23,-0.168C0.26,-0.138 0.296,-0.114 0.337,-0.097C0.378,-0.079 0.422,-0.07 0.467,-0.07C0.512,-0.07 0.555,-0.079 0.597,-0.097C0.638,-0.114 0.674,-0.138 0.703,-0.168C0.733,-0.198 0.757,-0.233 0.774,-0.274C0.792,-0.316 0.801,-0.359 0.801,-0.404C0.801,-0.45 0.792,-0.493 0.774,-0.534C0.757,-0.576 0.733,-0.611 0.703,-0.641C0.674,-0.671 0.638,-0.694 0.597,-0.712C0.555,-0.729 0.512,-0.738 0.467,-0.738C0.422,-0.738 0.378,-0.729 0.337,-0.712C0.296,-0.694 0.26,-0.671 0.23,-0.641C0.2,-0.611 0.177,-0.576 0.159,-0.534ZM0.147,-0.219C0.114,-0.276 0.098,-0.338 0.098,-0.404C0.098,-0.471 0.114,-0.533 0.147,-0.589C0.18,-0.646 0.225,-0.691 0.282,-0.724C0.338,-0.757 0.4,-0.773 0.467,-0.773C0.534,-0.773 0.595,-0.757 0.652,-0.724C0.708,-0.691 0.753,-0.646 0.786,-0.589C0.819,-0.533 0.836,-0.471 0.836,-0.404C0.836,-0.338 0.819,-0.276 0.786,-0.219C0.753,-0.163 0.708,-0.118 0.652,-0.085C0.595,-0.052 0.534,-0.035 0.467,-0.035C0.4,-0.035 0.338,-0.052 0.282,-0.085C0.225,-0.118 0.18,-0.163 0.147,-0.219ZM0.094,-0.561C0.073,-0.511 0.063,-0.459 0.063,-0.404C0.063,-0.35 0.073,-0.297 0.094,-0.247C0.116,-0.197 0.145,-0.154 0.181,-0.118C0.217,-0.082 0.26,-0.053 0.31,-0.032C0.36,-0.011 0.412,0 0.467,0C0.521,0 0.574,-0.011 0.624,-0.032C0.674,-0.053 0.717,-0.082 0.753,-0.118C0.789,-0.154 0.818,-0.197 0.839,-0.247C0.86,-0.297 0.871,-0.35 0.871,-0.404C0.871,-0.459 0.86,-0.511 0.839,-0.561C0.818,-0.611 0.789,-0.654 0.753,-0.69C0.717,-0.727 0.674,-0.755 0.624,-0.777C0.574,-0.798 0.521,-0.809 0.467,-0.809C0.412,-0.809 0.36,-0.798 0.31,-0.777C0.26,-0.755 0.217,-0.727 0.181,-0.69C0.145,-0.654 0.116,-0.611 0.094,-0.561ZM0.062,-0.233C0.039,-0.288 0.027,-0.345 0.027,-0.404C0.027,-0.464 0.039,-0.521 0.062,-0.575C0.086,-0.629 0.117,-0.676 0.156,-0.715C0.195,-0.754 0.242,-0.786 0.296,-0.809C0.35,-0.832 0.407,-0.844 0.467,-0.844C0.526,-0.844 0.583,-0.832 0.637,-0.809C0.692,-0.786 0.738,-0.754 0.778,-0.715C0.817,-0.676 0.848,-0.629 0.871,-0.575C0.895,-0.521 0.906,-0.464 0.906,-0.404C0.906,-0.345 0.895,-0.288 0.871,-0.234C0.848,-0.179 0.817,-0.133 0.778,-0.094C0.738,-0.054 0.692,-0.023 0.637,0C0.583,0.024 0.526,0.035 0.467,0.035C0.407,0.035 0.35,0.024 0.296,0C0.242,-0.023 0.195,-0.054 0.156,-0.094C0.117,-0.133 0.085,-0.179 0.062,-0.233Z" style="fill:url(#_Linear6);fill-rule:nonzero;"/>
            </g>
            <g transform="matrix(50,0,0,50,4930.76,3308.76)">
                <path d="M0.62,-0.389L0.584,-0.447L0.584,-0.809L0.62,-0.809L0.62,-0.389ZM0.69,-0.274L0.655,-0.333L0.655,-0.809L0.69,-0.809L0.69,-0.274ZM0.76,-0.157L0.725,-0.217L0.725,-0.809L0.76,-0.809L0.76,-0.157ZM0.256,-0.419L0.292,-0.361L0.292,0L0.256,0L0.256,-0.419ZM0.186,-0.535L0.221,-0.476L0.221,0L0.186,0L0.186,-0.535ZM0.116,-0.651L0.151,-0.592L0.151,0L0.116,0L0.116,-0.651ZM0.128,-0.809L0.169,-0.809L0.666,0L0.625,0L0.128,-0.809ZM0.211,-0.809L0.252,-0.809L0.749,0L0.707,0L0.211,-0.809ZM0.293,-0.809L0.334,-0.809L0.795,-0.057L0.795,-0.809L0.831,-0.809L0.831,0L0.789,0L0.293,-0.809ZM0.081,-0.751L0.081,0L0.045,0L0.045,-0.809L0.087,-0.809L0.583,0L0.542,0L0.081,-0.751Z" style="fill:url(#_Linear7);fill-rule:nonzero;"/>
            </g>
            <g transform="matrix(50,0,0,50,4974.66,3308.76)">
                <path d="M0.182,-0.492L0.182,-0.809L0.217,-0.809L0.217,-0.492L0.182,-0.492ZM0.111,-0.492L0.111,-0.809L0.146,-0.809L0.146,-0.492L0.111,-0.492ZM0.041,-0.492L0.041,-0.809L0.076,-0.809L0.076,-0.492L0.041,-0.492Z" style="fill:url(#_Linear8);fill-rule:nonzero;"/>
            </g>
            <g transform="matrix(50,0,0,50,4987.55,3308.76)">
                <path d="M0.03,-0.773L0.03,-0.809L0.557,-0.809L0.557,-0.773L0.03,-0.773ZM0.03,-0.703L0.03,-0.738L0.557,-0.738L0.557,-0.703L0.03,-0.703ZM0.03,-0.633L0.03,-0.668L0.557,-0.668L0.557,-0.633L0.417,-0.633L0.417,0L0.381,0L0.381,-0.633L0.346,-0.633L0.346,0L0.311,0L0.311,-0.633L0.276,-0.633L0.276,0L0.241,0L0.241,-0.633L0.206,-0.633L0.206,0L0.17,0L0.17,-0.633L0.03,-0.633Z" style="fill:url(#_Linear9);fill-rule:nonzero;"/>
            </g>
        </g>
        <g id="hot">
            <g transform="matrix(50,0,0,50,4701.83,3308.76)">
                <path d="M0.819,-0.809L0.854,-0.809L0.854,0L0.819,0L0.819,-0.809ZM0.045,-0.809L0.081,-0.809L0.081,0L0.045,0L0.045,-0.809ZM0.749,-0.809L0.784,-0.809L0.784,0L0.749,0L0.749,-0.809ZM0.678,-0.809L0.713,-0.809L0.713,0L0.678,0L0.678,-0.809ZM0.608,-0.809L0.643,-0.809L0.643,0L0.608,0L0.608,-0.317L0.292,-0.317L0.292,0L0.256,0L0.256,-0.809L0.292,-0.809L0.292,-0.493L0.608,-0.493L0.608,-0.809ZM0.186,-0.809L0.221,-0.809L0.221,0L0.186,0L0.186,-0.809ZM0.116,-0.809L0.151,-0.809L0.151,0L0.116,0L0.116,-0.809ZM0.608,-0.352L0.608,-0.387L0.292,-0.387L0.292,-0.352L0.608,-0.352ZM0.608,-0.422L0.608,-0.458L0.292,-0.458L0.292,-0.422L0.608,-0.422Z" style="fill:url(#_Linear10);fill-rule:nonzero;"/>
            </g>
            <g transform="matrix(50,0,0,50,4746.9,3308.76)">
                <path d="M0.33,-0.541C0.292,-0.503 0.273,-0.458 0.273,-0.404C0.273,-0.351 0.292,-0.305 0.33,-0.268C0.368,-0.23 0.413,-0.211 0.467,-0.211C0.52,-0.211 0.566,-0.23 0.604,-0.268C0.641,-0.305 0.66,-0.351 0.66,-0.404C0.66,-0.458 0.641,-0.503 0.604,-0.541C0.566,-0.579 0.52,-0.598 0.467,-0.598C0.413,-0.598 0.368,-0.579 0.33,-0.541ZM0.256,-0.315C0.244,-0.344 0.238,-0.373 0.238,-0.404C0.238,-0.435 0.244,-0.465 0.256,-0.493C0.268,-0.521 0.285,-0.545 0.305,-0.566C0.326,-0.586 0.35,-0.603 0.378,-0.615C0.406,-0.627 0.436,-0.633 0.467,-0.633C0.498,-0.633 0.527,-0.627 0.555,-0.615C0.584,-0.603 0.608,-0.586 0.628,-0.566C0.649,-0.545 0.665,-0.521 0.677,-0.493C0.689,-0.465 0.695,-0.435 0.695,-0.404C0.695,-0.373 0.689,-0.344 0.677,-0.316C0.665,-0.288 0.649,-0.263 0.628,-0.243C0.608,-0.222 0.584,-0.206 0.555,-0.194C0.527,-0.182 0.498,-0.176 0.467,-0.176C0.436,-0.176 0.406,-0.182 0.378,-0.194C0.35,-0.206 0.326,-0.222 0.305,-0.243C0.285,-0.263 0.268,-0.287 0.256,-0.315ZM0.238,-0.537C0.215,-0.496 0.203,-0.452 0.203,-0.404C0.203,-0.356 0.215,-0.312 0.239,-0.272C0.262,-0.232 0.294,-0.2 0.334,-0.176C0.375,-0.152 0.419,-0.141 0.467,-0.141C0.515,-0.141 0.559,-0.152 0.599,-0.176C0.639,-0.2 0.671,-0.232 0.695,-0.272C0.719,-0.312 0.73,-0.356 0.73,-0.404C0.73,-0.452 0.719,-0.496 0.695,-0.537C0.671,-0.577 0.639,-0.609 0.599,-0.633C0.559,-0.656 0.515,-0.668 0.467,-0.668C0.419,-0.668 0.375,-0.656 0.334,-0.633C0.294,-0.609 0.262,-0.577 0.238,-0.537ZM0.208,-0.254C0.181,-0.3 0.168,-0.35 0.168,-0.404C0.168,-0.458 0.181,-0.508 0.208,-0.554C0.235,-0.6 0.271,-0.636 0.317,-0.663C0.363,-0.69 0.413,-0.703 0.467,-0.703C0.521,-0.703 0.571,-0.69 0.617,-0.663C0.663,-0.636 0.699,-0.6 0.726,-0.554C0.752,-0.508 0.766,-0.458 0.766,-0.404C0.766,-0.35 0.752,-0.3 0.726,-0.254C0.699,-0.208 0.663,-0.172 0.617,-0.146C0.571,-0.119 0.521,-0.105 0.467,-0.105C0.413,-0.105 0.363,-0.119 0.317,-0.146C0.271,-0.172 0.235,-0.208 0.208,-0.254ZM0.159,-0.534C0.142,-0.493 0.133,-0.45 0.133,-0.404C0.133,-0.359 0.142,-0.316 0.159,-0.274C0.177,-0.233 0.2,-0.198 0.23,-0.168C0.26,-0.138 0.296,-0.114 0.337,-0.097C0.378,-0.079 0.422,-0.07 0.467,-0.07C0.512,-0.07 0.555,-0.079 0.597,-0.097C0.638,-0.114 0.674,-0.138 0.703,-0.168C0.733,-0.198 0.757,-0.233 0.774,-0.274C0.792,-0.316 0.801,-0.359 0.801,-0.404C0.801,-0.45 0.792,-0.493 0.774,-0.534C0.757,-0.576 0.733,-0.611 0.703,-0.641C0.674,-0.671 0.638,-0.694 0.597,-0.712C0.555,-0.729 0.512,-0.738 0.467,-0.738C0.422,-0.738 0.378,-0.729 0.337,-0.712C0.296,-0.694 0.26,-0.671 0.23,-0.641C0.2,-0.611 0.177,-0.576 0.159,-0.534ZM0.147,-0.219C0.114,-0.276 0.098,-0.338 0.098,-0.404C0.098,-0.471 0.114,-0.533 0.147,-0.589C0.18,-0.646 0.225,-0.691 0.282,-0.724C0.338,-0.757 0.4,-0.773 0.467,-0.773C0.534,-0.773 0.595,-0.757 0.652,-0.724C0.708,-0.691 0.753,-0.646 0.786,-0.589C0.819,-0.533 0.836,-0.471 0.836,-0.404C0.836,-0.338 0.819,-0.276 0.786,-0.219C0.753,-0.163 0.708,-0.118 0.652,-0.085C0.595,-0.052 0.534,-0.035 0.467,-0.035C0.4,-0.035 0.338,-0.052 0.282,-0.085C0.225,-0.118 0.18,-0.163 0.147,-0.219ZM0.094,-0.561C0.073,-0.511 0.063,-0.459 0.063,-0.404C0.063,-0.35 0.073,-0.297 0.094,-0.247C0.116,-0.197 0.145,-0.154 0.181,-0.118C0.217,-0.082 0.26,-0.053 0.31,-0.032C0.36,-0.011 0.412,0 0.467,0C0.521,0 0.574,-0.011 0.624,-0.032C0.674,-0.053 0.717,-0.082 0.753,-0.118C0.789,-0.154 0.818,-0.197 0.839,-0.247C0.86,-0.297 0.871,-0.35 0.871,-0.404C0.871,-0.459 0.86,-0.511 0.839,-0.561C0.818,-0.611 0.789,-0.654 0.753,-0.69C0.717,-0.727 0.674,-0.755 0.624,-0.777C0.574,-0.798 0.521,-0.809 0.467,-0.809C0.412,-0.809 0.36,-0.798 0.31,-0.777C0.26,-0.755 0.217,-0.727 0.181,-0.69C0.145,-0.654 0.116,-0.611 0.094,-0.561ZM0.062,-0.233C0.039,-0.288 0.027,-0.345 0.027,-0.404C0.027,-0.464 0.039,-0.521 0.062,-0.575C0.086,-0.629 0.117,-0.676 0.156,-0.715C0.195,-0.754 0.242,-0.786 0.296,-0.809C0.35,-0.832 0.407,-0.844 0.467,-0.844C0.526,-0.844 0.583,-0.832 0.637,-0.809C0.692,-0.786 0.738,-0.754 0.778,-0.715C0.817,-0.676 0.848,-0.629 0.871,-0.575C0.895,-0.521 0.906,-0.464 0.906,-0.404C0.906,-0.345 0.895,-0.288 0.871,-0.234C0.848,-0.179 0.817,-0.133 0.778,-0.094C0.738,-0.054 0.692,-0.023 0.637,0C0.583,0.024 0.526,0.035 0.467,0.035C0.407,0.035 0.35,0.024 0.296,0C0.242,-0.023 0.195,-0.054 0.156,-0.094C0.117,-0.133 0.085,-0.179 0.062,-0.233Z" style="fill:url(#_Linear11);fill-rule:nonzero;"/>
            </g>
            <g transform="matrix(50,0,0,50,4793.58,3308.76)">
                <path d="M0.03,-0.773L0.03,-0.809L0.557,-0.809L0.557,-0.773L0.03,-0.773ZM0.03,-0.703L0.03,-0.738L0.557,-0.738L0.557,-0.703L0.03,-0.703ZM0.03,-0.633L0.03,-0.668L0.557,-0.668L0.557,-0.633L0.417,-0.633L0.417,0L0.381,0L0.381,-0.633L0.346,-0.633L0.346,0L0.311,0L0.311,-0.633L0.276,-0.633L0.276,0L0.241,0L0.241,-0.633L0.206,-0.633L0.206,0L0.17,0L0.17,-0.633L0.03,-0.633Z" style="fill:url(#_Linear12);fill-rule:nonzero;"/>
            </g>
        </g>
    </g>
    <defs>
        <linearGradient id="_Linear1" x1="0" y1="0" x2="1" y2="0" gradientUnits="userSpaceOnUse" gradientTransform="matrix(9.70204,3.98936e-15,-3.98936e-15,9.70204,-9.14491,-0.404297)"><stop offset="0" style="stop-color:rgb(5,53,125);stop-opacity:1"/><stop offset="0.36" style="stop-color:rgb(189,92,67);stop-opacity:1"/><stop offset="0.68" style="stop-color:rgb(255,173,9);stop-opacity:1"/><stop offset="1" style="stop-color:rgb(255,255,178);stop-opacity:1"/></linearGradient>
        <linearGradient id="_Linear2" x1="0" y1="0" x2="1" y2="0" gradientUnits="userSpaceOnUse" gradientTransform="matrix(9.70204,3.98936e-15,-3.98936e-15,9.70204,-8.80605,-0.404297)"><stop offset="0" style="stop-color:rgb(5,53,125);stop-opacity:1"/><stop offset="0.36" style="stop-color:rgb(189,92,67);stop-opacity:1"/><stop offset="0.68" style="stop-color:rgb(255,173,9);stop-opacity:1"/><stop offset="1" style="stop-color:rgb(255,255,178);stop-opacity:1"/></linearGradient>
        <linearGradient id="_Linear3" x1="0" y1="0" x2="1" y2="0" gradientUnits="userSpaceOnUse" gradientTransform="matrix(9.70204,3.98936e-15,-3.98936e-15,9.70204,-7.90077,-0.404297)"><stop offset="0" style="stop-color:rgb(5,53,125);stop-opacity:1"/><stop offset="0.36" style="stop-color:rgb(189,92,67);stop-opacity:1"/><stop offset="0.68" style="stop-color:rgb(255,173,9);stop-opacity:1"/><stop offset="1" style="stop-color:rgb(255,255,178);stop-opacity:1"/></linearGradient>
        <linearGradient id="_Linear4" x1="0" y1="0" x2="1" y2="0" gradientUnits="userSpaceOnUse" gradientTransform="matrix(-3.42881e-13,979.786,-979.786,-3.42881e-13,3486.19,59.9151)"><stop offset="0" style="stop-color:rgb(5,53,125);stop-opacity:1"/><stop offset="0.36" style="stop-color:rgb(189,92,67);stop-opacity:1"/><stop offset="0.68" style="stop-color:rgb(255,173,9);stop-opacity:1"/><stop offset="1" style="stop-color:rgb(255,255,178);stop-opacity:1"/></linearGradient>
        <linearGradient id="_Linear5" x1="0" y1="0" x2="1" y2="0" gradientUnits="userSpaceOnUse" gradientTransform="matrix(9.70204,3.98936e-15,-3.98936e-15,9.70204,-2.78632,-0.404297)"><stop offset="0" style="stop-color:rgb(5,53,125);stop-opacity:1"/><stop offset="0.36" style="stop-color:rgb(189,92,67);stop-opacity:1"/><stop offset="0.68" style="stop-color:rgb(255,173,9);stop-opacity:1"/><stop offset="1" style="stop-color:rgb(255,255,178);stop-opacity:1"/></linearGradient>
        <linearGradient id="_Linear6" x1="0" y1="0" x2="1" y2="0" gradientUnits="userSpaceOnUse" gradientTransform="matrix(9.70204,3.98936e-15,-3.98936e-15,9.70204,-3.89668,-0.404297)"><stop offset="0" style="stop-color:rgb(5,53,125);stop-opacity:1"/><stop offset="0.36" style="stop-color:rgb(189,92,67);stop-opacity:1"/><stop offset="0.68" style="stop-color:rgb(255,173,9);stop-opacity:1"/><stop offset="1" style="stop-color:rgb(255,255,178);stop-opacity:1"/></linearGradient>
        <linearGradient id="_Linear7" x1="0" y1="0" x2="1" y2="0" gradientUnits="userSpaceOnUse" gradientTransform="matrix(9.70204,3.98936e-15,-3.98936e-15,9.70204,-4.83027,-0.404297)"><stop offset="0" style="stop-color:rgb(5,53,125);stop-opacity:1"/><stop offset="0.36" style="stop-color:rgb(189,92,67);stop-opacity:1"/><stop offset="0.68" style="stop-color:rgb(255,173,9);stop-opacity:1"/><stop offset="1" style="stop-color:rgb(255,255,178);stop-opacity:1"/></linearGradient>
        <linearGradient id="_Linear8" x1="0" y1="0" x2="1" y2="0" gradientUnits="userSpaceOnUse" gradientTransform="matrix(9.70204,3.98936e-15,-3.98936e-15,9.70204,-5.7082,-0.404297)"><stop offset="0" style="stop-color:rgb(5,53,125);stop-opacity:1"/><stop offset="0.36" style="stop-color:rgb(189,92,67);stop-opacity:1"/><stop offset="0.68" style="stop-color:rgb(255,173,9);stop-opacity:1"/><stop offset="1" style="stop-color:rgb(255,255,178);stop-opacity:1"/></linearGradient>
        <linearGradient id="_Linear9" x1="0" y1="0" x2="1" y2="0" gradientUnits="userSpaceOnUse" gradientTransform="matrix(9.70204,3.98936e-15,-3.98936e-15,9.70204,-5.96601,-0.404297)"><stop offset="0" style="stop-color:rgb(5,53,125);stop-opacity:1"/><stop offset="0.36" style="stop-color:rgb(189,92,67);stop-opacity:1"/><stop offset="0.68" style="stop-color:rgb(255,173,9);stop-opacity:1"/><stop offset="1" style="stop-color:rgb(255,255,178);stop-opacity:1"/></linearGradient>
        <linearGradient id="_Linear10" x1="0" y1="0" x2="1" y2="0" gradientUnits="userSpaceOnUse" gradientTransform="matrix(9.70204,3.98936e-15,-3.98936e-15,9.70204,0.0454102,-0.404297)"><stop offset="0" style="stop-color:rgb(5,53,125);stop-opacity:1"/><stop offset="0.36" style="stop-color:rgb(189,92,67);stop-opacity:1"/><stop offset="0.68" style="stop-color:rgb(255,173,9);stop-opacity:1"/><stop offset="1" style="stop-color:rgb(255,255,178);stop-opacity:1"/></linearGradient>
        <linearGradient id="_Linear11" x1="0" y1="0" x2="1" y2="0" gradientUnits="userSpaceOnUse" gradientTransform="matrix(9.70204,3.98936e-15,-3.98936e-15,9.70204,-0.855957,-0.404297)"><stop offset="0" style="stop-color:rgb(5,53,125);stop-opacity:1"/><stop offset="0.36" style="stop-color:rgb(189,92,67);stop-opacity:1"/><stop offset="0.68" style="stop-color:rgb(255,173,9);stop-opacity:1"/><stop offset="1" style="stop-color:rgb(255,255,178);stop-opacity:1"/></linearGradient>
        <linearGradient id="_Linear12" x1="0" y1="0" x2="1" y2="0" gradientUnits="userSpaceOnUse" gradientTransform="matrix(9.70204,3.98936e-15,-3.98936e-15,9.70204,-1.78955,-0.404297)"><stop offset="0" style="stop-color:rgb(5,53,125);stop-opacity:1"/><stop offset="0.36" style="stop-color:rgb(189,92,67);stop-opacity:1"/><stop offset="0.68" style="stop-color:rgb(255,173,9);stop-opacity:1"/><stop offset="1" style="stop-color:rgb(255,255,178);stop-opacity:1"/></linearGradient>
    </defs>
</svg>
