<?xml version="1.0" encoding="UTF-8" standalone="no"?>
<!DOCTYPE svg PUBLIC "-//W3C//DTD SVG 1.1//EN" "http://www.w3.org/Graphics/SVG/1.1/DTD/svg11.dtd">
<svg width="100%" height="100%" viewBox="0 0 900 350" version="1.1" xmlns="http://www.w3.org/2000/svg" xmlns:xlink="http://www.w3.org/1999/xlink" xml:space="preserve" xmlns:serif="http://www.serif.com/" style="fill-rule:evenodd;clip-rule:evenodd;stroke-linejoin:round;stroke-miterlimit:2;">
    <g transform="matrix(0.06946,0,0,0.06946,-293.733,-56.2084)">
        <path d="M11468.2,2962.8C11498.9,2764.63 11554.9,2572.25 11636.2,2385.63C11766.8,2086.12 11942.1,1827.99 12162.1,1611.24C12382.1,1394.48 12644.1,1221.79 12948.1,1093.18C13252.1,964.563 13571.2,900.255 13905.4,900.255C14239.5,900.255 14558.6,964.563 14862.6,1093.18C15166.6,1221.79 15428.6,1394.48 15648.6,1611.24C15868.7,1827.99 16043.9,2086.12 16174.5,2385.63C16305,2685.13 16370.3,2999.47 16370.3,3328.66C16370.3,3657.84 16305,3972.18 16174.5,4271.68C16155.9,4314.35 16136.4,4356.17 16116,4397.15L17006.1,4397.15L16949.4,4591.42L13905.4,4591.42L13903.3,4591.42C13730.6,4591.16 13565.6,4557.89 13408.3,4491.59C13250.3,4425.03 13113.8,4335.09 12998.8,4221.77C12883.8,4108.44 12792.5,3974.43 12724.9,3819.73C12657.4,3663.24 12623.6,3499.54 12623.6,3328.66C12623.6,3157.77 12657.4,2994.53 12724.9,2838.93C12792.5,2683.33 12883.8,2548.87 12998.8,2435.54C13113.8,2322.22 13250.3,2232.28 13408.3,2165.72C13566.2,2099.16 13731.9,2065.89 13905.4,2065.89C14078.8,2065.89 14244.5,2099.16 14402.5,2165.72C14560.4,2232.28 14696.9,2322.22 14811.9,2435.54C14926.9,2548.87 15018.2,2683.33 15085.8,2838.93C15153.4,2994.53 15187.1,3157.77 15187.1,3328.66C15187.1,3499.54 15153.4,3662.78 15085.8,3818.38C15018.2,3973.98 14926.9,4108.44 14811.9,4221.77C14744.4,4288.28 14669.5,4346.75 14587.2,4397.15L14912.5,4397.15C15019,4299.88 15110.1,4187.45 15185.8,4059.87C15318.1,3836.82 15384.3,3593.08 15384.3,3328.66C15384.3,3064.23 15318.1,2820.49 15185.8,2597.44C15053.4,2374.38 14874,2197.65 14647.6,2067.24C14421.2,1936.82 14173.8,1871.62 13905.4,1871.62C13637,1871.62 13389.5,1936.82 13163.1,2067.24C12936.7,2197.65 12756.9,2374.38 12623.6,2597.44C12492.1,2820.49 12426.4,3064.23 12426.4,3328.66C12426.4,3593.08 12492.6,3836.82 12625,4059.87C12757.3,4282.93 12936.7,4459.66 13163.1,4590.07C13389.5,4720.49 13637,4785.69 13905.4,4785.69C13919.3,4785.69 13933.2,4785.52 13947,4785.16L13947,4785.69L16892.6,4785.69L16835.9,4979.97L13905.4,4979.97L13901.8,4979.96C13600.1,4979.39 13321,4905.64 13064.5,4758.71C12807.1,4611.21 12603.5,4410.64 12453.8,4157.01C12304.1,3903.38 12229.2,3627.26 12229.2,3328.66C12229.2,3030.05 12304.1,2753.93 12453.8,2500.3C12603.5,2246.67 12807.1,2046.1 13064.5,1898.6C13322,1751.1 13602.3,1677.34 13905.4,1677.34C14208.5,1677.34 14488.7,1751.1 14746.2,1898.6C15003.6,2046.1 15207.2,2246.67 15356.9,2500.3C15506.7,2753.93 15581.5,3030.05 15581.5,3328.66C15581.5,3627.26 15506.7,3903.38 15356.9,4157.01C15306.1,4243.18 15249,4323.23 15185.7,4397.15L15435.1,4397.15C15510.9,4290.06 15576.1,4173.14 15630.8,4046.38C15729.4,3817.93 15778.7,3578.69 15778.7,3328.66C15778.7,3078.62 15729.4,2839.38 15630.8,2610.93C15532.2,2382.48 15399.4,2185.96 15232.3,2021.37C15065.3,1856.78 14865.8,1725.91 14633.9,1628.78C14402,1531.64 14159.2,1483.07 13905.4,1483.07C13651.6,1483.07 13408.7,1531.64 13176.8,1628.78C12944.9,1725.91 12745.5,1856.78 12578.4,2021.37C12411.3,2185.96 12278.5,2382.48 12179.9,2610.93C12081.3,2839.38 12032,3078.62 12032,3328.66C12032,3578.69 12081.3,3817.93 12179.9,4046.38C12278.5,4274.83 12411.3,4471.35 12578.4,4635.94C12745.5,4800.54 12944.9,4931.4 13176.8,5028.53C13408.7,5125.67 13651.6,5174.24 13905.4,5174.24C13919.3,5174.24 13933.2,5174.09 13947,5173.8L13947,5174.24L16779.1,5174.24L16722.4,5368.51L13905.4,5368.51C13531.1,5368.51 13185,5277.22 12867.3,5094.64C12549.6,4912.06 12297.7,4664.28 12111.4,4351.28C11927,4038.29 11834.8,3697.41 11834.8,3328.66C11834.8,2959.9 11927.5,2619.02 12112.8,2306.03C12298.1,1993.04 12549.6,1745.25 12867.3,1562.67C13185,1380.09 13531.1,1288.8 13905.4,1288.8C14279.7,1288.8 14625.7,1380.09 14943.4,1562.67C15261.1,1745.25 15512.6,1993.04 15697.9,2306.03C15883.3,2619.02 15975.9,2959.9 15975.9,3328.66C15975.9,3697.41 15883.3,4038.29 15697.9,4351.28C15688.8,4366.73 15679.5,4382.02 15670,4397.15L15895.6,4397.15C15931,4332.56 15963.7,4265.56 15993.7,4196.13C16113.3,3920.02 16173.1,3630.86 16173.1,3328.66C16173.1,3026.45 16113.3,2737.3 15993.7,2461.18C15874.1,2185.06 15713,1947.17 15510.3,1747.5C15307.6,1547.83 15066.2,1389.08 14785.9,1271.26C14505.6,1153.44 14212.1,1094.53 13905.4,1094.53C13598.6,1094.53 13305.1,1153.44 13024.8,1271.26C12744.5,1389.08 12503.1,1547.83 12300.4,1747.5C12097.7,1947.17 11936.1,2185.51 11815.6,2462.53C11696.9,2737.74 11637.6,3026.45 11637.6,3328.66C11637.6,3630.86 11697.4,3920.02 11817,4196.13C11936.6,4472.25 12097.7,4710.15 12300.4,4909.81C12503.1,5109.48 12744.5,5268.23 13024.8,5386.05C13305.1,5503.87 13598.6,5562.78 13905.4,5562.78C13919.3,5562.78 13933.2,5562.66 13947,5562.42L13947,5562.78L16665.6,5562.78L16608.9,5757.06L13905.4,5757.06C13879.4,5757.04 13853.5,5756.67 13827.6,5755.89C13776.3,5754.34 13724.9,5751.24 13673.8,5746.54C13565,5736.55 13456.9,5719.32 13350.5,5694.79C13254,5672.57 13159,5644.36 13066,5610.5C12993.8,5584.22 12922.9,5554.48 12853.3,5521.97C12752.6,5474.89 12654.7,5421.69 12560.7,5362.15C12518.4,5335.3 12476.8,5307.17 12436.2,5277.77C12415.5,5262.82 12395.1,5247.52 12374.9,5231.93L12372.4,5229.98L12230.9,5757.06L12011.5,5757.06L12194,5076.96C12183.3,5066.78 12172.6,5056.48 12162.1,5046.07C12113.6,4998.28 12067.2,4948.49 12023,4896.73L11792,5757.06L11575.6,5757.06L11862.9,4686.76C11808.1,4606.19 11757.7,4521.61 11711.6,4433.06L11356.1,5757.06L11139.6,5757.06L11577.9,4128.47C11529.2,3992.36 11493.5,3853.38 11470.7,3711.5L10920.2,5757.06L10700.8,5757.06C10509.7,5112.41 10318.5,4467.78 10127.4,3823.13L9609.59,5757.06L9390.18,5757.06L10671.6,989.984L10668.6,984.219L10891,984.219L10891,989.984L11460.9,2925.04L11468.2,2962.8ZM9170.76,5757.06L8954.27,5757.06L10235.7,984.219L10452.1,984.219L9170.76,5757.06ZM8734.86,5757.06L8518.37,5757.06C8946.47,4166.11 9802.68,984.219 9802.68,984.219L10016.2,984.219L8734.86,5757.06ZM5883.05,2757.24L7274.17,2757.24L6798.15,984.219L7017.57,984.219L8190.71,5347.79L9363.85,984.219L9583.26,984.219L8298.95,5757.06L8079.54,5757.06L7661.86,4201.3L5883.05,4201.3L5883.05,5757.06L5672.41,5757.06L5672.41,984.219L5883.05,984.219L5883.05,2757.24ZM4619.22,5757.06L4408.58,5757.06L4408.58,984.219L4619.22,984.219L4619.22,5757.06ZM5461.77,5757.06L5251.14,5757.06L5251.14,984.219L5461.77,984.219L5461.77,5757.06ZM5040.5,5757.06L4829.86,5757.06L4829.86,984.219L5040.5,984.219L5040.5,5757.06ZM10238.6,3416.75L10806.1,5365.08L10917.3,4952.94L10346.8,3010.37L10238.6,3416.75ZM8336.99,4290.04L8237.52,4699.31L7236.99,984.219L7453.48,984.219L8336.99,4290.04ZM10455.1,2603.99L11025.6,4546.55L11136.7,4140.17L10566.2,2194.72L10455.1,2603.99ZM13138.5,2573.15C12926.7,2781.82 12820.8,3033.65 12820.8,3328.66C12820.8,3623.66 12926.7,3875.49 13138.5,4084.16C13350.3,4292.82 13605.9,4397.15 13905.4,4397.15C14204.8,4397.15 14460.4,4292.82 14672.2,4084.16C14884,3875.49 14989.9,3623.66 14989.9,3328.66C14989.9,3033.65 14884,2781.82 14672.2,2573.15C14460.4,2364.49 14204.8,2260.16 13905.4,2260.16C13605.9,2260.16 13350.3,2364.49 13138.5,2573.15ZM7552.73,3794.81L5883.05,3794.81L5883.05,3990.46L7605.26,3990.46L7552.73,3794.81ZM8556.4,3491.69L8448.16,3889.42L7672.89,984.219L7886.45,984.219L8556.4,3491.69ZM10671.6,1796.99L11245,3739.55L11353.2,3330.29L10785.7,1381.96L10671.6,1796.99ZM7441.3,3379.78L5883.05,3379.78L5883.05,3587.3L7497.02,3587.3L7441.3,3379.78ZM7329.88,2964.76L5883.05,2964.76L5883.05,3172.27L7385.59,3172.27L7329.88,2964.76ZM8775.82,2664.51L8664.65,3068.01L8105.87,984.219L8325.28,984.219L8775.82,2664.51Z" style="fill:url(#_Linear1);fill-rule:nonzero;"/>
    </g>
    <defs>
        <linearGradient id="_Linear1" x1="0" y1="0" x2="1" y2="0" gradientUnits="userSpaceOnUse" gradientTransform="matrix(12574.1,1.63672e-12,-1.63672e-12,12574.1,4431.99,3379.78)"><stop offset="0" style="stop-color:rgb(5,53,125);stop-opacity:1"/><stop offset="0.34" style="stop-color:rgb(189,92,67);stop-opacity:1"/><stop offset="0.67" style="stop-color:rgb(255,173,9);stop-opacity:1"/><stop offset="1" style="stop-color:rgb(255,255,178);stop-opacity:1"/></linearGradient>
    </defs>
</svg>
